<?xml version="1.0" encoding="utf-8" standalone="no"?>
<!DOCTYPE svg PUBLIC "-//W3C//DTD SVG 1.1//EN"
  "http://www.w3.org/Graphics/SVG/1.1/DTD/svg11.dtd">
<!-- Created with matplotlib (https://matplotlib.org/) -->
<svg height="345.6pt" version="1.1" viewBox="0 0 460.8 345.6" width="460.8pt" xmlns="http://www.w3.org/2000/svg" xmlns:xlink="http://www.w3.org/1999/xlink">
 <defs>
  <style type="text/css">
*{stroke-linecap:butt;stroke-linejoin:round;}
  </style>
 </defs>
 <g id="figure_1">
  <g id="patch_1">
   <path d="M 0 345.6 
L 460.8 345.6 
L 460.8 0 
L 0 0 
z
" style="fill:#ffffff;"/>
  </g>
  <g id="axes_1">
   <g id="patch_2">
    <path d="M 57.6 307.584 
L 414.72 307.584 
L 414.72 41.472 
L 57.6 41.472 
z
" style="fill:#ffffff;"/>
   </g>
   <g id="matplotlib.axis_1">
    <g id="xtick_1">
     <g id="line2d_1">
      <defs>
       <path d="M 0 0 
L 0 3.5 
" id="m5f969a0f29" style="stroke:#000000;stroke-width:0.8;"/>
      </defs>
      <g>
       <use style="stroke:#000000;stroke-width:0.8;" x="70.553388" xlink:href="#m5f969a0f29" y="307.584"/>
      </g>
     </g>
     <g id="text_1">
      <!-- 0 -->
      <defs>
       <path d="M 25 66.015625 
Q 19.53125 66.015625 15.8125 57.609375 
Q 12.109375 49.21875 12.109375 35.15625 
Q 12.109375 20.3125 15.8125 12.109375 
Q 19.53125 3.90625 25 3.90625 
Q 30.859375 3.90625 34.171875 12.109375 
Q 37.5 20.3125 37.5 35.15625 
Q 37.5 49.21875 34.375 57.609375 
Q 31.25 66.015625 25 66.015625 
z
M 25 0.78125 
Q 16.40625 0.78125 10.546875 9.765625 
Q 4.6875 18.75 4.6875 35.15625 
Q 4.6875 50.390625 10.34375 59.765625 
Q 16.015625 69.140625 25 69.140625 
Q 33.59375 69.140625 39.25 60.15625 
Q 44.921875 51.171875 44.921875 35.15625 
Q 44.921875 19.140625 39.25 9.953125 
Q 33.59375 0.78125 25 0.78125 
z
" id="SimSun-48"/>
      </defs>
      <g transform="translate(66.053388 327.451187)scale(0.18 -0.18)">
       <use xlink:href="#SimSun-48"/>
      </g>
     </g>
    </g>
    <g id="xtick_2">
     <g id="line2d_2">
      <g>
       <use style="stroke:#000000;stroke-width:0.8;" x="136.140165" xlink:href="#m5f969a0f29" y="307.584"/>
      </g>
     </g>
     <g id="text_2">
      <!-- 20 -->
      <defs>
       <path d="M 36.328125 51.953125 
Q 36.328125 58.984375 33.203125 62.6875 
Q 30.078125 66.40625 23.828125 66.40625 
Q 19.140625 66.40625 15.8125 63.859375 
Q 12.5 61.328125 12.5 57.421875 
Q 12.5 55.078125 13.859375 53.515625 
Q 15.234375 51.953125 15.234375 50.390625 
Q 15.234375 48.4375 14.25 47.453125 
Q 13.28125 46.484375 11.328125 46.484375 
Q 8.984375 46.484375 7.609375 47.84375 
Q 6.25 49.21875 6.25 52.34375 
Q 6.25 60.546875 12.109375 64.84375 
Q 17.96875 69.140625 24.609375 69.140625 
Q 33.984375 69.140625 38.46875 64.453125 
Q 42.96875 59.765625 42.96875 52.734375 
Q 42.96875 48.046875 40.8125 43.359375 
Q 38.671875 38.671875 33.984375 34.375 
Q 22.65625 23.4375 16.59375 16.59375 
Q 10.546875 9.765625 9.375 7.421875 
L 32.421875 7.421875 
Q 35.9375 7.421875 38.28125 10.15625 
Q 40.625 12.890625 41.40625 18.359375 
L 43.75 18.359375 
L 41.40625 1.5625 
L 5.078125 1.5625 
L 5.078125 6.640625 
Q 7.03125 10.15625 11.515625 15.625 
Q 16.015625 21.09375 23.4375 28.515625 
Q 30.078125 35.15625 33.203125 41.015625 
Q 36.328125 46.875 36.328125 51.953125 
z
" id="SimSun-50"/>
      </defs>
      <g transform="translate(127.140165 327.451187)scale(0.18 -0.18)">
       <use xlink:href="#SimSun-50"/>
       <use x="50" xlink:href="#SimSun-48"/>
      </g>
     </g>
    </g>
    <g id="xtick_3">
     <g id="line2d_3">
      <g>
       <use style="stroke:#000000;stroke-width:0.8;" x="201.726942" xlink:href="#m5f969a0f29" y="307.584"/>
      </g>
     </g>
     <g id="text_3">
      <!-- 40 -->
      <defs>
       <path d="M 35.9375 8.984375 
Q 35.9375 6.25 37.5 5.078125 
Q 39.0625 3.90625 41.796875 3.90625 
L 45.3125 3.90625 
L 45.3125 1.5625 
L 19.53125 1.5625 
L 19.53125 3.90625 
L 23.828125 3.90625 
Q 26.953125 3.90625 28.3125 5.078125 
Q 29.6875 6.25 29.6875 8.984375 
L 29.6875 21.875 
L 3.515625 21.875 
L 3.515625 23.828125 
L 32.03125 69.140625 
L 35.9375 69.140625 
L 35.9375 24.21875 
L 46.484375 24.21875 
L 46.484375 21.875 
L 35.9375 21.875 
z
M 29.296875 59.375 
L 7.03125 24.21875 
L 29.6875 24.21875 
L 29.6875 59.375 
z
" id="SimSun-52"/>
      </defs>
      <g transform="translate(192.726942 327.451187)scale(0.18 -0.18)">
       <use xlink:href="#SimSun-52"/>
       <use x="50" xlink:href="#SimSun-48"/>
      </g>
     </g>
    </g>
    <g id="xtick_4">
     <g id="line2d_4">
      <g>
       <use style="stroke:#000000;stroke-width:0.8;" x="267.313719" xlink:href="#m5f969a0f29" y="307.584"/>
      </g>
     </g>
     <g id="text_4">
      <!-- 60 -->
      <defs>
       <path d="M 12.109375 28.125 
Q 12.109375 16.40625 16.203125 9.953125 
Q 20.3125 3.515625 26.171875 3.515625 
Q 32.03125 3.515625 35.15625 7.8125 
Q 38.28125 12.109375 38.28125 23.828125 
Q 38.28125 31.640625 34.953125 35.9375 
Q 31.640625 40.234375 26.953125 40.234375 
Q 22.65625 40.234375 18.9375 37.6875 
Q 15.234375 35.15625 12.109375 28.125 
z
M 27.34375 44.140625 
Q 36.71875 44.140625 40.8125 37.890625 
Q 44.921875 31.640625 44.921875 23.828125 
Q 44.921875 12.109375 39.25 6.4375 
Q 33.59375 0.78125 26.171875 0.78125 
Q 15.625 0.78125 10.15625 8.78125 
Q 4.6875 16.796875 4.6875 32.03125 
Q 4.6875 50 11.328125 59.5625 
Q 17.96875 69.140625 29.296875 69.140625 
Q 34.765625 69.140625 38.078125 66.015625 
Q 41.40625 62.890625 41.40625 60.546875 
Q 41.40625 58.203125 40.421875 57.03125 
Q 39.453125 55.859375 37.109375 55.859375 
Q 35.15625 55.859375 34.171875 56.828125 
Q 33.203125 57.8125 33.203125 59.765625 
Q 33.203125 60.546875 33.390625 61.328125 
Q 33.59375 62.109375 33.59375 62.890625 
Q 33.59375 64.453125 32.421875 65.421875 
Q 31.25 66.40625 28.125 66.40625 
Q 21.484375 66.40625 16.796875 60.34375 
Q 12.109375 54.296875 12.109375 33.984375 
Q 14.453125 39.0625 18.546875 41.59375 
Q 22.65625 44.140625 27.34375 44.140625 
z
" id="SimSun-54"/>
      </defs>
      <g transform="translate(258.313719 327.451187)scale(0.18 -0.18)">
       <use xlink:href="#SimSun-54"/>
       <use x="50" xlink:href="#SimSun-48"/>
      </g>
     </g>
    </g>
    <g id="xtick_5">
     <g id="line2d_5">
      <g>
       <use style="stroke:#000000;stroke-width:0.8;" x="332.900496" xlink:href="#m5f969a0f29" y="307.584"/>
      </g>
     </g>
     <g id="text_5">
      <!-- 80 -->
      <defs>
       <path d="M 9.765625 17.578125 
Q 9.765625 11.328125 13.859375 7.421875 
Q 17.96875 3.515625 24.21875 3.515625 
Q 31.640625 3.515625 34.953125 7.421875 
Q 38.28125 11.328125 38.28125 17.1875 
Q 38.28125 22.265625 33.59375 26.953125 
Q 28.90625 31.640625 19.53125 35.546875 
Q 14.84375 32.421875 12.296875 27.734375 
Q 9.765625 23.046875 9.765625 17.578125 
z
M 44.140625 18.359375 
Q 44.140625 10.9375 38.671875 5.859375 
Q 33.203125 0.78125 24.21875 0.78125 
Q 16.015625 0.78125 10.15625 5.859375 
Q 4.296875 10.9375 4.296875 17.578125 
Q 4.296875 24.21875 7.609375 28.90625 
Q 10.9375 33.59375 17.1875 37.109375 
Q 11.71875 39.84375 8.78125 43.9375 
Q 5.859375 48.046875 5.859375 53.125 
Q 5.859375 59.765625 10.9375 64.453125 
Q 16.015625 69.140625 25 69.140625 
Q 33.203125 69.140625 38.28125 64.453125 
Q 43.359375 59.765625 43.359375 53.125 
Q 43.359375 48.4375 40.421875 44.328125 
Q 37.5 40.234375 31.25 37.109375 
Q 37.890625 33.203125 41.015625 28.515625 
Q 44.140625 23.828125 44.140625 18.359375 
z
M 37.890625 52.734375 
Q 37.890625 58.203125 34.765625 62.296875 
Q 31.640625 66.40625 25 66.40625 
Q 17.578125 66.40625 14.453125 62.5 
Q 11.328125 58.59375 11.328125 54.296875 
Q 11.328125 50 15.8125 45.890625 
Q 20.3125 41.796875 28.515625 38.671875 
Q 33.203125 41.015625 35.546875 44.53125 
Q 37.890625 48.046875 37.890625 52.734375 
z
" id="SimSun-56"/>
      </defs>
      <g transform="translate(323.900496 327.451187)scale(0.18 -0.18)">
       <use xlink:href="#SimSun-56"/>
       <use x="50" xlink:href="#SimSun-48"/>
      </g>
     </g>
    </g>
    <g id="xtick_6">
     <g id="line2d_6">
      <g>
       <use style="stroke:#000000;stroke-width:0.8;" x="398.487273" xlink:href="#m5f969a0f29" y="307.584"/>
      </g>
     </g>
     <g id="text_6">
      <!-- 100 -->
      <defs>
       <path d="M 28.515625 69.53125 
L 28.515625 10.15625 
Q 28.515625 7.03125 30.46875 5.46875 
Q 32.421875 3.90625 35.9375 3.90625 
L 39.84375 3.90625 
L 39.84375 1.5625 
L 11.328125 1.5625 
L 11.328125 3.90625 
L 14.84375 3.90625 
Q 18.75 3.90625 20.5 5.46875 
Q 22.265625 7.03125 22.265625 10.15625 
L 22.265625 57.421875 
Q 22.265625 58.984375 21.28125 59.953125 
Q 20.3125 60.9375 18.359375 60.9375 
L 11.328125 60.9375 
L 11.328125 63.28125 
L 14.84375 63.28125 
Q 19.53125 63.28125 22.453125 64.84375 
Q 25.390625 66.40625 26.953125 69.53125 
z
" id="SimSun-49"/>
      </defs>
      <g transform="translate(384.987273 327.451187)scale(0.18 -0.18)">
       <use xlink:href="#SimSun-49"/>
       <use x="50" xlink:href="#SimSun-48"/>
       <use x="100" xlink:href="#SimSun-48"/>
      </g>
     </g>
    </g>
   </g>
   <g id="matplotlib.axis_2">
    <g id="ytick_1">
     <g id="line2d_7">
      <defs>
       <path d="M 0 0 
L -3.5 0 
" id="m1dd84f4cd2" style="stroke:#000000;stroke-width:0.8;"/>
      </defs>
      <g>
       <use style="stroke:#000000;stroke-width:0.8;" x="57.6" xlink:href="#m1dd84f4cd2" y="297.931636"/>
      </g>
     </g>
     <g id="text_7">
      <!-- 0 -->
      <g transform="translate(41.6 304.36523)scale(0.18 -0.18)">
       <use xlink:href="#SimSun-48"/>
      </g>
     </g>
    </g>
    <g id="ytick_2">
     <g id="line2d_8">
      <g>
       <use style="stroke:#000000;stroke-width:0.8;" x="57.6" xlink:href="#m1dd84f4cd2" y="249.058909"/>
      </g>
     </g>
     <g id="text_8">
      <!-- 20 -->
      <g transform="translate(32.6 255.492503)scale(0.18 -0.18)">
       <use xlink:href="#SimSun-50"/>
       <use x="50" xlink:href="#SimSun-48"/>
      </g>
     </g>
    </g>
    <g id="ytick_3">
     <g id="line2d_9">
      <g>
       <use style="stroke:#000000;stroke-width:0.8;" x="57.6" xlink:href="#m1dd84f4cd2" y="200.186182"/>
      </g>
     </g>
     <g id="text_9">
      <!-- 40 -->
      <g transform="translate(32.6 206.619776)scale(0.18 -0.18)">
       <use xlink:href="#SimSun-52"/>
       <use x="50" xlink:href="#SimSun-48"/>
      </g>
     </g>
    </g>
    <g id="ytick_4">
     <g id="line2d_10">
      <g>
       <use style="stroke:#000000;stroke-width:0.8;" x="57.6" xlink:href="#m1dd84f4cd2" y="151.313455"/>
      </g>
     </g>
     <g id="text_10">
      <!-- 60 -->
      <g transform="translate(32.6 157.747048)scale(0.18 -0.18)">
       <use xlink:href="#SimSun-54"/>
       <use x="50" xlink:href="#SimSun-48"/>
      </g>
     </g>
    </g>
    <g id="ytick_5">
     <g id="line2d_11">
      <g>
       <use style="stroke:#000000;stroke-width:0.8;" x="57.6" xlink:href="#m1dd84f4cd2" y="102.440727"/>
      </g>
     </g>
     <g id="text_11">
      <!-- 80 -->
      <g transform="translate(32.6 108.874321)scale(0.18 -0.18)">
       <use xlink:href="#SimSun-56"/>
       <use x="50" xlink:href="#SimSun-48"/>
      </g>
     </g>
    </g>
    <g id="ytick_6">
     <g id="line2d_12">
      <g>
       <use style="stroke:#000000;stroke-width:0.8;" x="57.6" xlink:href="#m1dd84f4cd2" y="53.568"/>
      </g>
     </g>
     <g id="text_12">
      <!-- 100 -->
      <g transform="translate(23.6 60.001594)scale(0.18 -0.18)">
       <use xlink:href="#SimSun-49"/>
       <use x="50" xlink:href="#SimSun-48"/>
       <use x="100" xlink:href="#SimSun-48"/>
      </g>
     </g>
    </g>
   </g>
   <g id="line2d_13">
    <path clip-path="url(#p7e27075eda)" d="M 73.832727 295.488 
L 77.112066 293.044364 
L 80.391405 290.600727 
L 83.670744 288.157091 
L 86.950083 285.713455 
L 90.229421 283.269818 
L 93.50876 280.826182 
L 96.788099 278.382545 
L 100.067438 275.938909 
L 103.346777 273.495273 
L 106.626116 271.051636 
L 109.905455 268.608 
L 113.184793 266.164364 
L 116.464132 263.720727 
L 119.743471 261.277091 
L 123.02281 258.833455 
L 126.302149 256.389818 
L 129.581488 253.946182 
L 132.860826 251.502545 
L 136.140165 249.058909 
L 139.419504 246.615273 
L 142.698843 244.171636 
L 145.978182 241.728 
L 149.257521 239.284364 
L 152.53686 236.840727 
L 155.816198 234.397091 
L 159.095537 231.953455 
L 162.374876 229.509818 
L 165.654215 227.066182 
L 168.933554 224.622545 
L 172.212893 222.178909 
L 175.492231 219.735273 
L 178.77157 217.291636 
L 182.050909 214.848 
L 185.330248 212.404364 
L 188.609587 209.960727 
L 191.888926 207.517091 
L 195.168264 205.073455 
L 198.447603 202.629818 
L 201.726942 200.186182 
L 205.006281 197.742545 
L 208.28562 195.298909 
L 211.564959 192.855273 
L 214.844298 190.411636 
L 218.123636 187.968 
L 221.402975 185.524364 
L 224.682314 183.080727 
L 227.961653 180.637091 
L 231.240992 178.193455 
L 234.520331 175.749818 
L 237.799669 173.306182 
L 241.079008 170.862545 
L 244.358347 168.418909 
L 247.637686 165.975273 
L 250.917025 163.531636 
L 254.196364 161.088 
L 257.475702 158.644364 
L 260.755041 156.200727 
L 264.03438 153.757091 
L 267.313719 151.313455 
L 270.593058 148.869818 
L 273.872397 146.426182 
L 277.151736 143.982545 
L 280.431074 141.538909 
L 283.710413 139.095273 
L 286.989752 136.651636 
L 290.269091 134.208 
L 293.54843 131.764364 
L 296.827769 129.320727 
L 300.107107 126.877091 
L 303.386446 124.433455 
L 306.665785 121.989818 
L 309.945124 119.546182 
L 313.224463 117.102545 
L 316.503802 114.658909 
L 319.78314 112.215273 
L 323.062479 109.771636 
L 326.341818 107.328 
L 329.621157 104.884364 
L 332.900496 102.440727 
L 336.179835 99.997091 
L 339.459174 97.553455 
L 342.738512 95.109818 
L 346.017851 92.666182 
L 349.29719 90.222545 
L 352.576529 87.778909 
L 355.855868 85.335273 
L 359.135207 82.891636 
L 362.414545 80.448 
L 365.693884 78.004364 
L 368.973223 75.560727 
L 372.252562 73.117091 
L 375.531901 70.673455 
L 378.81124 68.229818 
L 382.090579 65.786182 
L 385.369917 63.342545 
L 388.649256 60.898909 
L 391.928595 58.455273 
L 395.207934 56.011636 
L 398.487273 53.568 
" style="fill:none;stroke:#0000ff;stroke-linecap:square;stroke-width:1.5;"/>
    <defs>
     <path d="M -3 0 
L 3 0 
M 0 3 
L 0 -3 
" id="m08242274bd" style="stroke:#0000ff;"/>
    </defs>
    <g clip-path="url(#p7e27075eda)">
     <use style="fill:#0000ff;stroke:#0000ff;" x="73.832727" xlink:href="#m08242274bd" y="295.488"/>
     <use style="fill:#0000ff;stroke:#0000ff;" x="77.112066" xlink:href="#m08242274bd" y="293.044364"/>
     <use style="fill:#0000ff;stroke:#0000ff;" x="80.391405" xlink:href="#m08242274bd" y="290.600727"/>
     <use style="fill:#0000ff;stroke:#0000ff;" x="83.670744" xlink:href="#m08242274bd" y="288.157091"/>
     <use style="fill:#0000ff;stroke:#0000ff;" x="86.950083" xlink:href="#m08242274bd" y="285.713455"/>
     <use style="fill:#0000ff;stroke:#0000ff;" x="90.229421" xlink:href="#m08242274bd" y="283.269818"/>
     <use style="fill:#0000ff;stroke:#0000ff;" x="93.50876" xlink:href="#m08242274bd" y="280.826182"/>
     <use style="fill:#0000ff;stroke:#0000ff;" x="96.788099" xlink:href="#m08242274bd" y="278.382545"/>
     <use style="fill:#0000ff;stroke:#0000ff;" x="100.067438" xlink:href="#m08242274bd" y="275.938909"/>
     <use style="fill:#0000ff;stroke:#0000ff;" x="103.346777" xlink:href="#m08242274bd" y="273.495273"/>
     <use style="fill:#0000ff;stroke:#0000ff;" x="106.626116" xlink:href="#m08242274bd" y="271.051636"/>
     <use style="fill:#0000ff;stroke:#0000ff;" x="109.905455" xlink:href="#m08242274bd" y="268.608"/>
     <use style="fill:#0000ff;stroke:#0000ff;" x="113.184793" xlink:href="#m08242274bd" y="266.164364"/>
     <use style="fill:#0000ff;stroke:#0000ff;" x="116.464132" xlink:href="#m08242274bd" y="263.720727"/>
     <use style="fill:#0000ff;stroke:#0000ff;" x="119.743471" xlink:href="#m08242274bd" y="261.277091"/>
     <use style="fill:#0000ff;stroke:#0000ff;" x="123.02281" xlink:href="#m08242274bd" y="258.833455"/>
     <use style="fill:#0000ff;stroke:#0000ff;" x="126.302149" xlink:href="#m08242274bd" y="256.389818"/>
     <use style="fill:#0000ff;stroke:#0000ff;" x="129.581488" xlink:href="#m08242274bd" y="253.946182"/>
     <use style="fill:#0000ff;stroke:#0000ff;" x="132.860826" xlink:href="#m08242274bd" y="251.502545"/>
     <use style="fill:#0000ff;stroke:#0000ff;" x="136.140165" xlink:href="#m08242274bd" y="249.058909"/>
     <use style="fill:#0000ff;stroke:#0000ff;" x="139.419504" xlink:href="#m08242274bd" y="246.615273"/>
     <use style="fill:#0000ff;stroke:#0000ff;" x="142.698843" xlink:href="#m08242274bd" y="244.171636"/>
     <use style="fill:#0000ff;stroke:#0000ff;" x="145.978182" xlink:href="#m08242274bd" y="241.728"/>
     <use style="fill:#0000ff;stroke:#0000ff;" x="149.257521" xlink:href="#m08242274bd" y="239.284364"/>
     <use style="fill:#0000ff;stroke:#0000ff;" x="152.53686" xlink:href="#m08242274bd" y="236.840727"/>
     <use style="fill:#0000ff;stroke:#0000ff;" x="155.816198" xlink:href="#m08242274bd" y="234.397091"/>
     <use style="fill:#0000ff;stroke:#0000ff;" x="159.095537" xlink:href="#m08242274bd" y="231.953455"/>
     <use style="fill:#0000ff;stroke:#0000ff;" x="162.374876" xlink:href="#m08242274bd" y="229.509818"/>
     <use style="fill:#0000ff;stroke:#0000ff;" x="165.654215" xlink:href="#m08242274bd" y="227.066182"/>
     <use style="fill:#0000ff;stroke:#0000ff;" x="168.933554" xlink:href="#m08242274bd" y="224.622545"/>
     <use style="fill:#0000ff;stroke:#0000ff;" x="172.212893" xlink:href="#m08242274bd" y="222.178909"/>
     <use style="fill:#0000ff;stroke:#0000ff;" x="175.492231" xlink:href="#m08242274bd" y="219.735273"/>
     <use style="fill:#0000ff;stroke:#0000ff;" x="178.77157" xlink:href="#m08242274bd" y="217.291636"/>
     <use style="fill:#0000ff;stroke:#0000ff;" x="182.050909" xlink:href="#m08242274bd" y="214.848"/>
     <use style="fill:#0000ff;stroke:#0000ff;" x="185.330248" xlink:href="#m08242274bd" y="212.404364"/>
     <use style="fill:#0000ff;stroke:#0000ff;" x="188.609587" xlink:href="#m08242274bd" y="209.960727"/>
     <use style="fill:#0000ff;stroke:#0000ff;" x="191.888926" xlink:href="#m08242274bd" y="207.517091"/>
     <use style="fill:#0000ff;stroke:#0000ff;" x="195.168264" xlink:href="#m08242274bd" y="205.073455"/>
     <use style="fill:#0000ff;stroke:#0000ff;" x="198.447603" xlink:href="#m08242274bd" y="202.629818"/>
     <use style="fill:#0000ff;stroke:#0000ff;" x="201.726942" xlink:href="#m08242274bd" y="200.186182"/>
     <use style="fill:#0000ff;stroke:#0000ff;" x="205.006281" xlink:href="#m08242274bd" y="197.742545"/>
     <use style="fill:#0000ff;stroke:#0000ff;" x="208.28562" xlink:href="#m08242274bd" y="195.298909"/>
     <use style="fill:#0000ff;stroke:#0000ff;" x="211.564959" xlink:href="#m08242274bd" y="192.855273"/>
     <use style="fill:#0000ff;stroke:#0000ff;" x="214.844298" xlink:href="#m08242274bd" y="190.411636"/>
     <use style="fill:#0000ff;stroke:#0000ff;" x="218.123636" xlink:href="#m08242274bd" y="187.968"/>
     <use style="fill:#0000ff;stroke:#0000ff;" x="221.402975" xlink:href="#m08242274bd" y="185.524364"/>
     <use style="fill:#0000ff;stroke:#0000ff;" x="224.682314" xlink:href="#m08242274bd" y="183.080727"/>
     <use style="fill:#0000ff;stroke:#0000ff;" x="227.961653" xlink:href="#m08242274bd" y="180.637091"/>
     <use style="fill:#0000ff;stroke:#0000ff;" x="231.240992" xlink:href="#m08242274bd" y="178.193455"/>
     <use style="fill:#0000ff;stroke:#0000ff;" x="234.520331" xlink:href="#m08242274bd" y="175.749818"/>
     <use style="fill:#0000ff;stroke:#0000ff;" x="237.799669" xlink:href="#m08242274bd" y="173.306182"/>
     <use style="fill:#0000ff;stroke:#0000ff;" x="241.079008" xlink:href="#m08242274bd" y="170.862545"/>
     <use style="fill:#0000ff;stroke:#0000ff;" x="244.358347" xlink:href="#m08242274bd" y="168.418909"/>
     <use style="fill:#0000ff;stroke:#0000ff;" x="247.637686" xlink:href="#m08242274bd" y="165.975273"/>
     <use style="fill:#0000ff;stroke:#0000ff;" x="250.917025" xlink:href="#m08242274bd" y="163.531636"/>
     <use style="fill:#0000ff;stroke:#0000ff;" x="254.196364" xlink:href="#m08242274bd" y="161.088"/>
     <use style="fill:#0000ff;stroke:#0000ff;" x="257.475702" xlink:href="#m08242274bd" y="158.644364"/>
     <use style="fill:#0000ff;stroke:#0000ff;" x="260.755041" xlink:href="#m08242274bd" y="156.200727"/>
     <use style="fill:#0000ff;stroke:#0000ff;" x="264.03438" xlink:href="#m08242274bd" y="153.757091"/>
     <use style="fill:#0000ff;stroke:#0000ff;" x="267.313719" xlink:href="#m08242274bd" y="151.313455"/>
     <use style="fill:#0000ff;stroke:#0000ff;" x="270.593058" xlink:href="#m08242274bd" y="148.869818"/>
     <use style="fill:#0000ff;stroke:#0000ff;" x="273.872397" xlink:href="#m08242274bd" y="146.426182"/>
     <use style="fill:#0000ff;stroke:#0000ff;" x="277.151736" xlink:href="#m08242274bd" y="143.982545"/>
     <use style="fill:#0000ff;stroke:#0000ff;" x="280.431074" xlink:href="#m08242274bd" y="141.538909"/>
     <use style="fill:#0000ff;stroke:#0000ff;" x="283.710413" xlink:href="#m08242274bd" y="139.095273"/>
     <use style="fill:#0000ff;stroke:#0000ff;" x="286.989752" xlink:href="#m08242274bd" y="136.651636"/>
     <use style="fill:#0000ff;stroke:#0000ff;" x="290.269091" xlink:href="#m08242274bd" y="134.208"/>
     <use style="fill:#0000ff;stroke:#0000ff;" x="293.54843" xlink:href="#m08242274bd" y="131.764364"/>
     <use style="fill:#0000ff;stroke:#0000ff;" x="296.827769" xlink:href="#m08242274bd" y="129.320727"/>
     <use style="fill:#0000ff;stroke:#0000ff;" x="300.107107" xlink:href="#m08242274bd" y="126.877091"/>
     <use style="fill:#0000ff;stroke:#0000ff;" x="303.386446" xlink:href="#m08242274bd" y="124.433455"/>
     <use style="fill:#0000ff;stroke:#0000ff;" x="306.665785" xlink:href="#m08242274bd" y="121.989818"/>
     <use style="fill:#0000ff;stroke:#0000ff;" x="309.945124" xlink:href="#m08242274bd" y="119.546182"/>
     <use style="fill:#0000ff;stroke:#0000ff;" x="313.224463" xlink:href="#m08242274bd" y="117.102545"/>
     <use style="fill:#0000ff;stroke:#0000ff;" x="316.503802" xlink:href="#m08242274bd" y="114.658909"/>
     <use style="fill:#0000ff;stroke:#0000ff;" x="319.78314" xlink:href="#m08242274bd" y="112.215273"/>
     <use style="fill:#0000ff;stroke:#0000ff;" x="323.062479" xlink:href="#m08242274bd" y="109.771636"/>
     <use style="fill:#0000ff;stroke:#0000ff;" x="326.341818" xlink:href="#m08242274bd" y="107.328"/>
     <use style="fill:#0000ff;stroke:#0000ff;" x="329.621157" xlink:href="#m08242274bd" y="104.884364"/>
     <use style="fill:#0000ff;stroke:#0000ff;" x="332.900496" xlink:href="#m08242274bd" y="102.440727"/>
     <use style="fill:#0000ff;stroke:#0000ff;" x="336.179835" xlink:href="#m08242274bd" y="99.997091"/>
     <use style="fill:#0000ff;stroke:#0000ff;" x="339.459174" xlink:href="#m08242274bd" y="97.553455"/>
     <use style="fill:#0000ff;stroke:#0000ff;" x="342.738512" xlink:href="#m08242274bd" y="95.109818"/>
     <use style="fill:#0000ff;stroke:#0000ff;" x="346.017851" xlink:href="#m08242274bd" y="92.666182"/>
     <use style="fill:#0000ff;stroke:#0000ff;" x="349.29719" xlink:href="#m08242274bd" y="90.222545"/>
     <use style="fill:#0000ff;stroke:#0000ff;" x="352.576529" xlink:href="#m08242274bd" y="87.778909"/>
     <use style="fill:#0000ff;stroke:#0000ff;" x="355.855868" xlink:href="#m08242274bd" y="85.335273"/>
     <use style="fill:#0000ff;stroke:#0000ff;" x="359.135207" xlink:href="#m08242274bd" y="82.891636"/>
     <use style="fill:#0000ff;stroke:#0000ff;" x="362.414545" xlink:href="#m08242274bd" y="80.448"/>
     <use style="fill:#0000ff;stroke:#0000ff;" x="365.693884" xlink:href="#m08242274bd" y="78.004364"/>
     <use style="fill:#0000ff;stroke:#0000ff;" x="368.973223" xlink:href="#m08242274bd" y="75.560727"/>
     <use style="fill:#0000ff;stroke:#0000ff;" x="372.252562" xlink:href="#m08242274bd" y="73.117091"/>
     <use style="fill:#0000ff;stroke:#0000ff;" x="375.531901" xlink:href="#m08242274bd" y="70.673455"/>
     <use style="fill:#0000ff;stroke:#0000ff;" x="378.81124" xlink:href="#m08242274bd" y="68.229818"/>
     <use style="fill:#0000ff;stroke:#0000ff;" x="382.090579" xlink:href="#m08242274bd" y="65.786182"/>
     <use style="fill:#0000ff;stroke:#0000ff;" x="385.369917" xlink:href="#m08242274bd" y="63.342545"/>
     <use style="fill:#0000ff;stroke:#0000ff;" x="388.649256" xlink:href="#m08242274bd" y="60.898909"/>
     <use style="fill:#0000ff;stroke:#0000ff;" x="391.928595" xlink:href="#m08242274bd" y="58.455273"/>
     <use style="fill:#0000ff;stroke:#0000ff;" x="395.207934" xlink:href="#m08242274bd" y="56.011636"/>
     <use style="fill:#0000ff;stroke:#0000ff;" x="398.487273" xlink:href="#m08242274bd" y="53.568"/>
    </g>
   </g>
   <g id="patch_3">
    <path d="M 57.6 307.584 
L 57.6 41.472 
" style="fill:none;stroke:#000000;stroke-linecap:square;stroke-linejoin:miter;stroke-width:0.8;"/>
   </g>
   <g id="patch_4">
    <path d="M 414.72 307.584 
L 414.72 41.472 
" style="fill:none;stroke:#000000;stroke-linecap:square;stroke-linejoin:miter;stroke-width:0.8;"/>
   </g>
   <g id="patch_5">
    <path d="M 57.6 307.584 
L 414.72 307.584 
" style="fill:none;stroke:#000000;stroke-linecap:square;stroke-linejoin:miter;stroke-width:0.8;"/>
   </g>
   <g id="patch_6">
    <path d="M 57.6 41.472 
L 414.72 41.472 
" style="fill:none;stroke:#000000;stroke-linecap:square;stroke-linejoin:miter;stroke-width:0.8;"/>
   </g>
   <g id="text_13">
    <!-- 卡尔曼滤波后的效果 -->
    <defs>
     <path d="M 41.796875 -9.375 
Q 42.1875 1.171875 42.1875 7.421875 
L 42.1875 41.796875 
L 17.96875 41.796875 
Q 12.890625 41.796875 8.59375 40.625 
L 5.078125 44.140625 
L 42.1875 44.140625 
L 42.1875 68.75 
Q 42.1875 75 41.796875 82.03125 
L 51.171875 77.34375 
L 47.65625 74.609375 
L 47.65625 64.0625 
L 72.65625 64.0625 
L 77.734375 69.140625 
L 85.15625 61.71875 
L 47.65625 61.71875 
L 47.65625 44.140625 
L 80.859375 44.140625 
L 86.71875 50 
L 94.921875 41.796875 
L 43.75 41.796875 
L 51.171875 37.5 
L 47.65625 35.15625 
L 47.65625 30.859375 
Q 76.171875 24.21875 79.6875 20.3125 
Q 83.203125 16.40625 82.421875 12.296875 
Q 81.640625 8.203125 75.78125 13.671875 
Q 69.921875 19.140625 47.65625 28.90625 
L 47.65625 5.46875 
Q 47.65625 -1.5625 48.046875 -6.640625 
z
" id="SimSun-21345"/>
     <path d="M 72.65625 47.65625 
L 79.6875 60.9375 
L 30.078125 60.9375 
Q 21.484375 48.4375 12.890625 40.234375 
L 11.71875 41.40625 
Q 19.140625 50.78125 24.40625 61.328125 
Q 29.6875 71.875 31.640625 81.640625 
L 39.84375 77.734375 
Q 37.890625 75.78125 35.9375 72.65625 
Q 33.984375 69.53125 30.859375 63.28125 
L 79.6875 63.28125 
L 83.984375 67.96875 
L 91.40625 60.546875 
Q 85.15625 60.15625 73.828125 46.875 
z
M 49.21875 5.078125 
L 49.21875 35.9375 
Q 49.21875 47.265625 48.828125 53.125 
L 57.8125 48.4375 
L 54.6875 46.09375 
L 54.6875 1.953125 
Q 53.90625 -6.640625 45.703125 -9.765625 
Q 45.3125 -4.296875 33.203125 -0.390625 
L 33.203125 1.5625 
Q 44.140625 0 46.484375 0.1875 
Q 48.828125 0.390625 49.21875 5.078125 
z
M 31.25 39.84375 
L 39.84375 33.984375 
Q 36.71875 32.421875 34.765625 29.296875 
Q 32.8125 26.171875 25.390625 16.59375 
Q 17.96875 7.03125 6.640625 -1.5625 
L 5.859375 -0.390625 
Q 15.234375 8.984375 21.875 19.53125 
Q 28.515625 30.078125 31.25 39.84375 
z
M 64.0625 37.890625 
Q 75 29.296875 81.4375 22.453125 
Q 87.890625 15.625 89.0625 11.515625 
Q 90.234375 7.421875 87.6875 4.09375 
Q 85.15625 0.78125 82.609375 7.421875 
Q 80.078125 14.0625 75.1875 21.484375 
Q 70.3125 28.90625 62.890625 36.71875 
z
" id="SimSun-23572"/>
     <path d="M 33.203125 19.921875 
Q 40.625 12.5 49.609375 7.421875 
Q 58.203125 12.5 65.234375 19.921875 
z
M 75.78125 73.046875 
Q 75.78125 57.8125 76.171875 51.953125 
L 70.703125 49.609375 
L 70.703125 53.125 
L 29.6875 53.125 
L 29.6875 51.171875 
L 24.21875 49.21875 
Q 24.609375 56.25 24.609375 63.671875 
Q 24.609375 71.09375 24.21875 80.078125 
L 29.6875 76.953125 
L 69.921875 76.953125 
L 73.4375 80.46875 
L 79.296875 75.78125 
z
M 29.6875 74.609375 
L 29.6875 66.40625 
L 70.703125 66.40625 
L 70.703125 74.609375 
z
M 29.6875 64.0625 
L 29.6875 55.46875 
L 70.703125 55.46875 
L 70.703125 64.0625 
z
M 14.0625 24.609375 
Q 14.453125 31.25 14.453125 37.5 
Q 14.453125 43.75 14.0625 49.21875 
L 19.921875 46.484375 
L 78.90625 46.484375 
L 82.421875 50 
L 88.28125 45.3125 
L 84.765625 42.96875 
Q 84.765625 32.03125 85.15625 27.734375 
L 79.6875 25.390625 
L 79.6875 29.296875 
L 19.53125 29.296875 
L 19.53125 26.953125 
z
M 19.53125 44.140625 
L 19.53125 31.640625 
L 35.546875 31.640625 
L 35.546875 44.140625 
z
M 41.015625 44.140625 
L 41.015625 31.640625 
L 57.8125 31.640625 
L 57.8125 44.140625 
z
M 62.890625 44.140625 
L 62.890625 31.640625 
L 79.6875 31.640625 
L 79.6875 44.140625 
z
M 70.703125 17.1875 
Q 60.546875 8.984375 53.90625 5.078125 
Q 60.9375 1.5625 72.65625 -0.1875 
Q 84.375 -1.953125 94.921875 -0.390625 
L 94.921875 -1.953125 
Q 87.5 -3.90625 87.109375 -7.8125 
Q 75.78125 -7.421875 66.203125 -4.875 
Q 56.640625 -2.34375 49.609375 2.34375 
Q 38.671875 -3.125 27.140625 -5.65625 
Q 15.625 -8.203125 6.25 -9.375 
L 5.46875 -7.8125 
Q 15.625 -6.25 26.359375 -2.921875 
Q 37.109375 0.390625 45.703125 5.078125 
Q 37.890625 11.328125 31.25 19.921875 
L 27.734375 19.921875 
L 23.046875 19.140625 
L 19.921875 22.265625 
L 65.625 22.265625 
L 69.53125 25.390625 
L 75.390625 18.75 
z
" id="SimSun-26364"/>
     <path d="M 47.265625 18.359375 
L 48.828125 17.96875 
Q 48.828125 8.984375 47.65625 5.265625 
Q 46.484375 1.5625 44.140625 0.78125 
Q 41.796875 0 39.25 0.96875 
Q 36.71875 1.953125 40.421875 5.265625 
Q 44.140625 8.59375 47.265625 18.359375 
z
M 61.71875 27.734375 
Q 69.921875 24.21875 72.265625 21.484375 
Q 74.609375 18.75 72.453125 14.640625 
Q 70.3125 10.546875 68.359375 15.8125 
Q 66.40625 21.09375 60.9375 26.5625 
z
M 82.421875 18.359375 
Q 89.453125 14.453125 92.578125 11.125 
Q 95.703125 7.8125 93.15625 3.515625 
Q 90.625 -0.78125 89.25 4.6875 
Q 87.890625 10.15625 81.640625 17.578125 
z
M 61.328125 -5.46875 
Q 54.296875 -5.859375 53.90625 1.171875 
L 53.90625 13.28125 
Q 53.90625 18.359375 53.515625 23.046875 
L 62.109375 18.75 
L 58.984375 16.40625 
L 58.984375 3.125 
Q 58.59375 -1.171875 64.0625 -1.171875 
L 75.390625 -1.171875 
Q 78.515625 -0.78125 78.90625 3.3125 
Q 79.296875 7.421875 79.6875 12.5 
L 81.25 12.5 
Q 81.25 7.421875 81.828125 3.90625 
Q 82.421875 0.390625 85.9375 -0.78125 
Q 83.203125 -5.46875 76.171875 -5.46875 
z
M 58.203125 58.59375 
Q 58.203125 76.171875 57.8125 82.03125 
L 66.796875 78.515625 
L 63.28125 75.390625 
L 63.28125 69.53125 
L 77.34375 69.53125 
L 82.421875 74.609375 
L 89.0625 67.1875 
L 63.28125 67.1875 
L 63.28125 58.59375 
L 85.15625 58.59375 
L 88.28125 62.5 
L 94.53125 55.859375 
Q 89.84375 56.25 83.203125 48.4375 
L 82.03125 49.21875 
L 85.9375 56.25 
L 42.1875 56.25 
Q 42.578125 31.25 39.453125 17.375 
Q 36.328125 3.515625 23.046875 -8.984375 
L 21.875 -8.203125 
Q 29.296875 0.390625 32.609375 10.34375 
Q 35.9375 20.3125 36.71875 34.171875 
Q 37.5 48.046875 36.71875 62.109375 
L 42.1875 58.59375 
z
M 80.078125 34.375 
Q 82.8125 35.15625 83.203125 39.25 
Q 83.59375 43.359375 83.984375 46.484375 
L 85.546875 46.484375 
Q 85.546875 42.1875 86.125 38.859375 
Q 86.71875 35.546875 89.84375 34.375 
Q 87.109375 30.078125 80.46875 30.46875 
L 66.015625 30.46875 
Q 57.03125 30.078125 57.8125 36.328125 
L 57.8125 42.578125 
L 48.046875 41.796875 
L 46.09375 40.625 
L 42.96875 43.75 
L 57.8125 44.921875 
Q 57.8125 51.171875 57.421875 56.25 
L 66.015625 52.734375 
L 62.890625 50.390625 
L 62.890625 45.703125 
L 71.484375 46.875 
L 75.390625 51.171875 
L 81.640625 45.3125 
L 62.890625 43.359375 
L 62.890625 37.109375 
Q 62.890625 33.984375 67.96875 34.375 
z
M 34.375 62.890625 
Q 21.875 21.875 20.890625 16.59375 
Q 19.921875 11.328125 19.921875 4.296875 
Q 19.921875 -2.734375 19.921875 -5.65625 
Q 19.921875 -8.59375 15.421875 -6.828125 
Q 10.9375 -5.078125 13.28125 2.921875 
Q 15.625 10.9375 13.28125 13.078125 
Q 10.9375 15.234375 5.078125 16.796875 
L 5.078125 17.96875 
Q 12.109375 17.578125 13.671875 17.96875 
Q 15.234375 18.359375 17.375 21.484375 
Q 19.53125 24.609375 32.8125 63.28125 
z
M 5.46875 54.296875 
Q 17.578125 48.4375 18.15625 45.109375 
Q 18.75 41.796875 16.40625 38.859375 
Q 14.0625 35.9375 12.296875 41.015625 
Q 10.546875 46.09375 4.6875 53.125 
z
M 14.453125 76.5625 
Q 25.78125 71.484375 26.953125 68.15625 
Q 28.125 64.84375 25.578125 61.328125 
Q 23.046875 57.8125 21.28125 63.078125 
Q 19.53125 68.359375 13.671875 75.78125 
z
" id="SimSun-28388"/>
     <path d="M 77.734375 49.609375 
L 82.8125 59.375 
L 65.625 59.375 
L 65.625 39.453125 
L 78.125 39.453125 
L 81.640625 42.96875 
L 87.109375 37.5 
L 83.203125 34.765625 
Q 77.734375 22.65625 68.75 11.71875 
Q 81.25 0.390625 94.921875 -2.34375 
L 94.921875 -3.515625 
Q 89.0625 -3.90625 86.328125 -8.203125 
Q 74.21875 -1.171875 65.625 8.203125 
Q 51.953125 -5.078125 30.46875 -9.765625 
L 30.078125 -8.203125 
Q 49.609375 -1.953125 62.5 11.71875 
Q 54.6875 21.875 50.390625 37.109375 
L 48.046875 37.109375 
L 45.703125 36.328125 
L 43.359375 38.28125 
Q 43.359375 24.21875 38.28125 12.296875 
Q 33.203125 0.390625 21.09375 -9.375 
L 19.921875 -8.203125 
Q 30.46875 3.125 34.375 14.453125 
Q 38.28125 25.78125 38.28125 39.84375 
Q 38.28125 53.90625 37.890625 65.234375 
L 43.75 61.71875 
L 60.546875 61.71875 
Q 60.546875 77.34375 60.15625 82.03125 
L 68.359375 78.90625 
L 65.625 75.78125 
L 65.625 61.71875 
L 82.03125 61.71875 
L 86.328125 66.015625 
L 92.96875 59.375 
Q 89.453125 58.203125 86.90625 56.640625 
Q 84.375 55.078125 78.90625 48.828125 
z
M 43.359375 59.375 
L 43.359375 39.453125 
L 60.546875 39.453125 
L 60.546875 59.375 
z
M 65.625 15.234375 
Q 73.046875 24.21875 78.515625 37.109375 
L 52.34375 37.109375 
Q 58.203125 22.65625 65.625 15.234375 
z
M 36.71875 64.0625 
Q 21.484375 22.65625 20.109375 17.765625 
Q 18.75 12.890625 18.9375 5.859375 
Q 19.140625 -1.171875 19.328125 -3.90625 
Q 19.53125 -6.640625 14.84375 -5.078125 
Q 10.15625 -3.515625 12.5 4.484375 
Q 14.84375 12.5 12.5 14.640625 
Q 10.15625 16.796875 4.296875 18.359375 
L 4.296875 19.921875 
Q 11.328125 19.140625 13.078125 19.328125 
Q 14.84375 19.53125 16.984375 22.84375 
Q 19.140625 26.171875 35.15625 64.453125 
z
M 5.078125 57.03125 
Q 18.75 50 18.75 45.5 
Q 18.75 41.015625 16.59375 39.453125 
Q 14.453125 37.890625 12.6875 43.15625 
Q 10.9375 48.4375 4.296875 55.859375 
z
M 13.671875 79.296875 
Q 24.609375 73.828125 25.96875 69.921875 
Q 27.34375 66.015625 24.796875 63.28125 
Q 22.265625 60.546875 20.5 65.8125 
Q 18.75 71.09375 12.890625 78.125 
z
" id="SimSun-27874"/>
     <path d="M 4.6875 -8.59375 
Q 14.453125 3.515625 17.375 14.453125 
Q 20.3125 25.390625 20.5 40.8125 
Q 20.703125 56.25 20.3125 72.65625 
L 26.5625 68.75 
Q 48.828125 70.703125 63.28125 73.828125 
Q 77.734375 76.953125 82.421875 79.6875 
L 87.890625 72.265625 
Q 82.8125 72.65625 64.640625 70.109375 
Q 46.484375 67.578125 26.171875 66.40625 
L 26.171875 50.390625 
L 80.46875 50.390625 
L 85.546875 55.46875 
L 92.578125 48.046875 
L 26.171875 48.046875 
Q 26.5625 24.609375 21.484375 12.296875 
Q 16.40625 0 5.859375 -9.765625 
z
M 81.640625 27.734375 
L 81.640625 7.8125 
Q 81.640625 1.953125 82.03125 -2.734375 
L 76.171875 -5.078125 
L 76.171875 1.953125 
L 41.015625 1.953125 
L 41.015625 -4.296875 
L 34.765625 -7.03125 
Q 35.546875 1.953125 35.546875 14.25 
Q 35.546875 26.5625 35.15625 35.15625 
L 41.796875 31.640625 
L 75.390625 31.640625 
L 79.296875 35.546875 
L 84.765625 30.078125 
z
M 41.015625 29.296875 
L 41.015625 4.296875 
L 76.171875 4.296875 
L 76.171875 29.296875 
z
" id="SimSun-21518"/>
     <path d="M 17.578125 58.984375 
L 17.578125 33.984375 
L 37.890625 33.984375 
L 37.890625 58.984375 
z
M 17.578125 31.640625 
L 17.578125 4.296875 
L 37.890625 4.296875 
L 37.890625 31.640625 
z
M 42.96875 56.640625 
Q 42.96875 10.9375 43.359375 -3.125 
L 37.890625 -6.25 
L 37.890625 1.953125 
L 17.578125 1.953125 
L 17.578125 -4.6875 
L 12.109375 -7.8125 
Q 12.5 10.546875 12.5 28.703125 
Q 12.5 46.875 12.109375 64.84375 
L 17.96875 61.328125 
L 21.875 61.328125 
Q 25.78125 74.609375 26.171875 81.640625 
L 34.765625 76.953125 
Q 30.859375 75 24.21875 61.328125 
L 37.109375 61.328125 
L 41.015625 65.234375 
L 46.875 59.375 
z
M 62.109375 81.25 
L 70.703125 76.171875 
Q 67.578125 74.21875 60.9375 60.15625 
L 82.03125 60.15625 
L 86.328125 64.453125 
L 92.1875 58.59375 
L 88.671875 55.859375 
Q 87.890625 10.15625 86.515625 4.09375 
Q 85.15625 -1.953125 82.609375 -4.296875 
Q 80.078125 -6.640625 74.609375 -8.59375 
Q 72.65625 -2.34375 61.71875 0.78125 
L 61.71875 2.734375 
Q 71.484375 0.78125 75.78125 0.78125 
Q 80.078125 0.78125 81.046875 7.421875 
Q 82.03125 14.0625 82.8125 57.8125 
L 60.15625 57.8125 
Q 53.125 46.484375 45.3125 38.671875 
L 44.140625 39.453125 
Q 52.34375 51.953125 56.25 61.71875 
Q 60.15625 71.484375 62.109375 81.25 
z
M 55.078125 42.96875 
Q 64.453125 35.9375 66.59375 31.25 
Q 68.75 26.5625 65.625 22.65625 
Q 62.5 18.75 61.125 26.5625 
Q 59.765625 34.375 54.296875 41.796875 
z
" id="SimSun-30340"/>
     <path d="M 8.984375 62.890625 
L 30.859375 62.890625 
Q 30.46875 66.40625 28.703125 70.3125 
Q 26.953125 74.21875 22.65625 79.6875 
L 23.828125 80.46875 
Q 31.25 76.171875 34.953125 72.0625 
Q 38.671875 67.96875 34.375 62.890625 
L 44.53125 62.890625 
L 49.21875 67.578125 
L 56.25 60.546875 
L 21.875 60.546875 
Q 16.796875 60.546875 12.5 59.375 
z
M 22.265625 57.421875 
L 29.6875 52.34375 
L 26.171875 50.78125 
Q 14.84375 34.765625 7.421875 29.296875 
L 6.25 30.078125 
Q 16.796875 42.1875 22.265625 57.421875 
z
M 35.9375 55.859375 
L 36.71875 57.03125 
Q 45.3125 53.125 48.625 50.390625 
Q 51.953125 47.65625 50 42.578125 
Q 48.046875 37.5 45.3125 43.359375 
Q 42.578125 49.21875 35.9375 55.859375 
z
M 19.53125 34.765625 
Q 26.171875 30.46875 32.421875 25.390625 
Q 37.109375 35.15625 38.28125 41.40625 
L 45.3125 35.546875 
Q 42.578125 34.765625 35.9375 22.265625 
Q 42.1875 16.796875 45.3125 12.6875 
Q 48.4375 8.59375 46.484375 4.09375 
Q 44.53125 -0.390625 41.984375 5.265625 
Q 39.453125 10.9375 33.59375 18.359375 
Q 22.265625 1.5625 7.421875 -7.421875 
L 6.640625 -6.25 
Q 20.3125 4.6875 30.46875 21.875 
Q 23.828125 28.90625 18.75 33.59375 
z
M 63.28125 54.6875 
L 61.71875 50.78125 
Q 64.84375 32.03125 70.703125 19.921875 
Q 77.34375 32.8125 80.078125 54.6875 
z
M 65.234375 82.03125 
L 74.609375 77.34375 
Q 71.875 76.171875 70.703125 73.828125 
Q 69.53125 71.484375 64.0625 57.03125 
L 83.984375 57.03125 
L 88.671875 61.71875 
L 95.703125 54.6875 
L 85.546875 54.6875 
Q 82.421875 30.859375 73.4375 14.84375 
Q 83.59375 0 95.3125 -1.953125 
L 95.3125 -3.515625 
Q 88.28125 -3.90625 86.71875 -7.8125 
Q 77.734375 -1.171875 69.921875 11.328125 
Q 57.03125 -1.953125 38.28125 -9.765625 
L 37.5 -8.59375 
Q 57.03125 1.953125 67.578125 15.625 
Q 61.328125 31.640625 60.15625 47.65625 
Q 55.46875 37.5 50.390625 31.25 
L 49.21875 32.03125 
Q 59.765625 52.34375 65.234375 82.03125 
z
" id="SimSun-25928"/>
     <path d="M 26.953125 73.828125 
L 26.953125 60.546875 
L 47.265625 60.546875 
L 47.265625 73.828125 
z
M 53.125 73.828125 
L 53.125 60.546875 
L 73.828125 60.546875 
L 73.828125 73.828125 
z
M 26.953125 58.203125 
L 26.953125 44.140625 
L 47.265625 44.140625 
L 47.265625 58.203125 
z
M 53.125 58.203125 
L 53.125 44.140625 
L 73.828125 44.140625 
L 73.828125 58.203125 
z
M 21.09375 35.9375 
Q 21.484375 46.875 21.484375 57.8125 
Q 21.484375 68.75 21.09375 79.296875 
L 26.953125 76.171875 
L 73.4375 76.171875 
L 76.953125 79.6875 
L 82.8125 74.21875 
L 79.296875 71.875 
Q 79.296875 44.53125 79.6875 39.0625 
L 73.828125 36.328125 
L 73.828125 41.796875 
L 53.125 41.796875 
L 53.125 30.46875 
L 79.6875 30.46875 
L 85.546875 36.328125 
L 93.75 28.125 
L 53.90625 28.125 
Q 70.3125 7.03125 94.140625 1.5625 
L 94.140625 0 
Q 86.71875 -0.390625 85.15625 -4.6875 
Q 61.71875 8.203125 53.125 26.5625 
Q 53.125 -0.78125 53.515625 -6.640625 
L 46.875 -9.765625 
Q 47.265625 5.46875 47.265625 25.78125 
Q 32.8125 5.078125 6.25 -5.859375 
L 5.859375 -4.296875 
Q 28.90625 8.59375 42.1875 28.125 
L 20.3125 28.125 
Q 15.234375 28.125 10.9375 26.953125 
L 7.421875 30.46875 
L 47.265625 30.46875 
L 47.265625 41.796875 
L 26.953125 41.796875 
L 26.953125 38.28125 
z
" id="SimSun-26524"/>
    </defs>
    <g transform="translate(138.96 35.472)scale(0.216 -0.216)">
     <use xlink:href="#SimSun-21345"/>
     <use x="100" xlink:href="#SimSun-23572"/>
     <use x="200" xlink:href="#SimSun-26364"/>
     <use x="300" xlink:href="#SimSun-28388"/>
     <use x="400" xlink:href="#SimSun-27874"/>
     <use x="500" xlink:href="#SimSun-21518"/>
     <use x="600" xlink:href="#SimSun-30340"/>
     <use x="700" xlink:href="#SimSun-25928"/>
     <use x="800" xlink:href="#SimSun-26524"/>
    </g>
   </g>
   <g id="legend_1">
    <g id="line2d_14">
     <path d="M 73.8 65.786063 
L 109.8 65.786063 
" style="fill:none;stroke:#0000ff;stroke-linecap:square;stroke-width:1.5;"/>
    </g>
    <g id="line2d_15">
     <g>
      <use style="fill:#0000ff;stroke:#0000ff;" x="91.8" xlink:href="#m08242274bd" y="65.786063"/>
     </g>
    </g>
    <g id="text_14">
     <!-- CMA最佳路径数据集 -->
     <defs>
      <path d="M 26.953125 0.78125 
Q 16.015625 0.78125 9.5625 8.984375 
Q 3.125 17.1875 3.125 34.765625 
Q 3.125 49.609375 9.953125 59.375 
Q 16.796875 69.140625 28.515625 69.140625 
Q 31.25 69.140625 33.984375 68.15625 
Q 36.71875 67.1875 38.671875 67.1875 
Q 40.234375 67.1875 41.203125 67.578125 
Q 42.1875 67.96875 42.96875 69.140625 
L 46.484375 51.953125 
L 44.140625 51.171875 
Q 41.796875 58.59375 37.890625 62.5 
Q 33.984375 66.40625 27.734375 66.40625 
Q 19.53125 66.40625 15.03125 57.421875 
Q 10.546875 48.4375 10.546875 35.15625 
Q 10.546875 20.703125 14.453125 12.5 
Q 18.359375 4.296875 27.34375 4.296875 
Q 33.59375 4.296875 38.078125 8.78125 
Q 42.578125 13.28125 44.140625 20.703125 
L 46.484375 19.53125 
Q 44.53125 11.328125 39.25 6.046875 
Q 33.984375 0.78125 26.953125 0.78125 
z
" id="SimSun-67"/>
      <path d="M 43.75 7.03125 
Q 43.75 5.46875 44.71875 4.6875 
Q 45.703125 3.90625 47.265625 3.90625 
L 48.828125 3.90625 
L 48.828125 1.5625 
L 32.03125 1.5625 
L 32.03125 3.90625 
L 33.984375 3.90625 
Q 35.9375 3.90625 36.71875 4.6875 
Q 37.5 5.46875 37.5 7.03125 
L 37.5 58.203125 
L 36.71875 58.203125 
L 23.4375 1.5625 
L 21.09375 1.5625 
L 21.09375 1.5625 
L 8.984375 57.03125 
L 8.203125 57.03125 
L 8.203125 7.03125 
Q 8.203125 5.46875 9.171875 4.6875 
Q 10.15625 3.90625 11.71875 3.90625 
L 12.890625 3.90625 
L 12.890625 1.5625 
L 1.171875 1.5625 
L 1.171875 3.90625 
L 2.34375 3.90625 
Q 4.296875 3.90625 5.078125 4.6875 
Q 5.859375 5.46875 5.859375 7.03125 
L 5.859375 62.890625 
Q 5.859375 64.453125 5.078125 65.234375 
Q 4.296875 66.015625 2.34375 66.015625 
L 0.78125 66.015625 
L 0.78125 68.359375 
L 12.109375 68.359375 
L 23.4375 16.015625 
L 24.21875 16.015625 
L 36.328125 68.359375 
L 48.828125 68.359375 
L 48.828125 66.015625 
L 47.265625 66.015625 
Q 45.703125 66.015625 44.71875 65.234375 
Q 43.75 64.453125 43.75 62.890625 
z
" id="SimSun-77"/>
      <path d="M 31.640625 26.5625 
L 14.0625 26.5625 
L 10.546875 11.71875 
Q 9.765625 8.203125 10.546875 6.046875 
Q 11.328125 3.90625 14.0625 3.90625 
L 15.234375 3.90625 
L 15.234375 1.5625 
L 0.78125 1.5625 
L 0.78125 3.90625 
L 1.953125 3.90625 
Q 3.515625 3.90625 4.6875 4.875 
Q 5.859375 5.859375 6.25 8.203125 
L 21.484375 67.96875 
L 27.34375 69.921875 
L 42.1875 8.203125 
Q 42.96875 5.859375 44.140625 4.875 
Q 45.3125 3.90625 46.875 3.90625 
L 48.046875 3.90625 
L 48.046875 1.5625 
L 31.25 1.5625 
L 31.25 3.90625 
L 32.8125 3.90625 
Q 35.15625 3.90625 35.734375 5.265625 
Q 36.328125 6.640625 35.546875 9.375 
z
M 23.4375 61.328125 
L 23.046875 61.328125 
L 14.84375 28.90625 
L 31.25 28.90625 
z
" id="SimSun-65"/>
      <path d="M 24.21875 42.578125 
L 24.21875 34.375 
L 42.578125 34.375 
L 42.578125 42.578125 
z
M 24.21875 32.03125 
L 24.21875 23.046875 
L 42.578125 23.046875 
L 42.578125 32.03125 
z
M 24.21875 20.703125 
L 24.21875 8.203125 
L 42.578125 11.328125 
L 42.578125 20.703125 
z
M 59.375 33.203125 
Q 60.9375 27.734375 63.671875 22.265625 
Q 66.40625 16.796875 69.53125 13.28125 
Q 72.65625 17.96875 75.1875 23.046875 
Q 77.734375 28.125 79.6875 33.203125 
z
M 5.078125 44.921875 
L 79.6875 44.921875 
L 85.9375 51.171875 
L 94.53125 42.578125 
L 47.65625 42.578125 
L 47.65625 12.5 
L 58.984375 14.84375 
L 59.375 13.28125 
L 47.65625 9.765625 
L 47.65625 -7.03125 
L 42.578125 -10.15625 
L 42.578125 8.203125 
Q 20.703125 2.734375 16.015625 0.96875 
Q 11.328125 -0.78125 10.546875 -2.34375 
L 5.859375 5.078125 
Q 11.328125 5.859375 18.75 7.03125 
L 18.75 42.578125 
L 13.28125 42.578125 
L 8.203125 41.796875 
z
M 49.21875 35.546875 
L 79.296875 35.546875 
L 82.421875 39.453125 
L 88.671875 33.984375 
L 85.15625 32.03125 
Q 79.296875 18.75 72.65625 9.765625 
Q 78.90625 3.90625 83.59375 1.5625 
Q 88.28125 -0.78125 94.921875 -1.171875 
L 94.921875 -2.734375 
Q 88.671875 -3.515625 87.109375 -7.421875 
Q 82.8125 -5.46875 78.515625 -2.140625 
Q 74.21875 1.171875 69.53125 6.25 
Q 61.71875 -1.5625 48.828125 -8.984375 
L 47.65625 -7.8125 
Q 58.984375 0 66.796875 9.375 
Q 63.28125 14.84375 61.125 20.5 
Q 58.984375 26.171875 57.421875 33.203125 
L 52.34375 32.421875 
z
M 29.6875 75 
L 29.6875 66.40625 
L 71.875 66.40625 
L 71.875 75 
z
M 29.6875 64.0625 
L 29.6875 55.46875 
L 71.875 55.46875 
L 71.875 64.0625 
z
M 23.828125 80.46875 
L 29.6875 77.34375 
L 71.09375 77.34375 
L 73.828125 81.640625 
L 80.46875 76.953125 
L 77.34375 74.21875 
Q 77.34375 55.078125 77.734375 51.171875 
L 71.875 48.4375 
L 71.875 53.125 
L 29.6875 53.125 
L 29.6875 50 
L 23.828125 48.046875 
Q 24.21875 55.46875 24.21875 64.25 
Q 24.21875 73.046875 23.828125 80.46875 
z
" id="SimSun-26368"/>
      <path d="M 59.765625 61.328125 
Q 59.765625 75 59.375 81.25 
L 68.75 76.953125 
L 65.234375 74.21875 
L 65.234375 61.328125 
L 77.34375 61.328125 
L 82.421875 66.40625 
L 89.84375 58.984375 
L 65.234375 58.984375 
L 65.234375 41.796875 
L 82.8125 41.796875 
L 87.890625 46.875 
L 95.3125 39.453125 
L 42.96875 39.453125 
Q 37.890625 39.453125 33.59375 38.28125 
L 30.078125 41.796875 
L 59.765625 41.796875 
L 59.765625 58.984375 
L 49.21875 58.984375 
Q 44.140625 58.984375 39.84375 57.8125 
L 36.328125 61.328125 
z
M 59.765625 21.09375 
Q 59.765625 32.03125 59.375 38.28125 
L 68.75 33.984375 
L 65.234375 31.25 
L 65.234375 21.09375 
L 78.515625 21.09375 
L 82.8125 25.390625 
L 89.453125 18.75 
L 65.234375 18.75 
L 65.234375 -2.34375 
L 83.59375 -2.34375 
L 88.671875 2.734375 
L 96.09375 -4.6875 
L 42.578125 -4.6875 
Q 37.5 -4.6875 33.203125 -5.859375 
L 29.6875 -2.34375 
L 59.765625 -2.34375 
L 59.765625 18.75 
L 50 18.75 
Q 44.921875 18.75 40.625 17.578125 
L 37.109375 21.09375 
z
M 26.5625 12.890625 
Q 26.5625 8.203125 26.953125 -7.03125 
L 20.703125 -10.546875 
Q 21.09375 6.25 21.09375 11.71875 
L 21.09375 49.21875 
Q 13.28125 37.890625 5.46875 30.46875 
L 4.296875 31.640625 
Q 12.890625 41.796875 19.140625 54.875 
Q 25.390625 67.96875 28.125 80.078125 
L 36.71875 75.390625 
L 32.8125 73.046875 
Q 28.125 62.109375 23.4375 53.515625 
L 29.296875 50.78125 
L 26.5625 48.4375 
z
" id="SimSun-20339"/>
      <path d="M 56.640625 62.890625 
Q 60.546875 54.6875 67.578125 47.265625 
Q 73.4375 55.078125 78.515625 66.015625 
L 58.203125 66.015625 
z
M 57.421875 24.21875 
L 57.421875 1.171875 
L 78.125 1.171875 
L 78.125 24.21875 
z
M 83.203125 22.65625 
Q 83.203125 5.859375 83.59375 -5.859375 
L 78.125 -8.59375 
L 78.125 -1.171875 
L 57.421875 -1.171875 
L 57.421875 -7.03125 
L 51.953125 -10.15625 
Q 52.34375 2.34375 52.34375 27.34375 
Q 46.875 23.4375 36.71875 19.921875 
L 36.328125 21.09375 
Q 52.34375 29.296875 64.453125 44.140625 
Q 59.375 51.5625 55.46875 60.9375 
Q 49.609375 49.609375 42.96875 42.1875 
L 41.796875 42.96875 
Q 53.125 61.71875 57.421875 81.640625 
L 65.234375 77.34375 
L 62.109375 75 
Q 61.328125 73.4375 58.984375 68.359375 
L 78.90625 68.359375 
L 81.640625 72.265625 
L 87.890625 67.1875 
L 84.375 64.453125 
Q 78.515625 53.515625 71.09375 44.140625 
Q 82.03125 34.765625 96.09375 31.640625 
L 96.09375 30.078125 
Q 91.015625 29.6875 89.0625 25.78125 
Q 77.734375 31.25 67.96875 40.234375 
Q 63.28125 35.546875 55.078125 28.90625 
L 58.59375 26.5625 
L 77.734375 26.5625 
L 80.078125 29.6875 
L 85.9375 25 
z
M 16.796875 69.921875 
L 16.796875 49.609375 
L 34.765625 49.609375 
L 34.765625 69.921875 
z
M 15.625 5.46875 
L 23.4375 7.421875 
L 23.4375 47.265625 
L 16.796875 47.265625 
L 16.796875 44.140625 
L 11.328125 42.1875 
Q 11.71875 51.5625 11.71875 60.15625 
Q 11.71875 68.75 11.328125 75 
L 16.796875 72.265625 
L 33.984375 72.265625 
L 36.71875 75.78125 
L 42.578125 71.484375 
L 39.453125 68.75 
Q 39.453125 51.953125 39.84375 46.09375 
L 34.765625 43.75 
L 34.765625 47.265625 
L 28.125 47.265625 
L 28.125 32.421875 
L 32.8125 32.421875 
L 37.109375 36.71875 
L 43.359375 30.078125 
L 28.125 30.078125 
L 28.125 8.59375 
L 42.578125 12.109375 
L 42.96875 10.546875 
Q 28.90625 5.859375 11.328125 -1.171875 
L 8.59375 -3.125 
L 4.6875 2.734375 
L 10.9375 4.296875 
Q 10.9375 28.125 10.546875 36.328125 
L 18.75 32.421875 
L 15.625 29.6875 
z
" id="SimSun-36335"/>
      <path d="M 27.734375 81.25 
L 35.546875 75.390625 
L 31.640625 73.828125 
Q 18.75 58.203125 7.8125 51.5625 
L 7.03125 52.734375 
Q 14.453125 59.765625 19.921875 67.578125 
Q 25.390625 75.390625 27.734375 81.25 
z
M 22.65625 -10.15625 
Q 23.046875 -1.5625 23.046875 5.078125 
L 23.046875 36.71875 
Q 15.234375 28.125 4.6875 19.53125 
L 3.90625 21.09375 
Q 11.328125 28.125 19.53125 39.453125 
Q 27.734375 50.78125 31.640625 60.15625 
L 39.453125 54.6875 
L 35.15625 52.34375 
Q 32.03125 48.828125 28.515625 42.96875 
L 28.515625 -7.421875 
z
M 77.734375 69.53125 
Q 72.65625 62.5 66.40625 55.46875 
Q 77.734375 51.5625 84.375 48.4375 
Q 91.015625 45.3125 92.765625 41.984375 
Q 94.53125 38.671875 92.765625 36.328125 
Q 91.015625 33.984375 85.15625 40.421875 
Q 79.296875 46.875 65.234375 53.90625 
Q 51.5625 40.625 33.203125 33.203125 
L 32.421875 34.375 
Q 43.75 40.234375 53.3125 48.828125 
Q 62.890625 57.421875 71.875 71.09375 
L 52.734375 71.09375 
Q 47.65625 71.09375 43.359375 69.921875 
L 39.84375 73.4375 
L 72.265625 73.4375 
L 75.390625 76.953125 
L 81.640625 71.484375 
z
M 39.453125 31.640625 
L 75 31.640625 
L 79.6875 36.328125 
L 86.71875 29.296875 
L 66.015625 29.296875 
L 66.015625 0 
L 82.421875 0 
L 87.5 5.078125 
L 94.921875 -2.34375 
L 46.875 -2.34375 
Q 41.796875 -2.34375 37.5 -3.515625 
L 33.984375 0 
L 60.546875 0 
L 60.546875 29.296875 
L 48.046875 29.296875 
L 42.578125 28.515625 
z
" id="SimSun-24452"/>
      <path d="M 29.296875 23.828125 
Q 26.171875 18.75 23.4375 14.0625 
Q 28.515625 12.890625 35.546875 11.328125 
Q 39.0625 15.234375 42.578125 23.828125 
z
M 13.28125 76.5625 
Q 20.703125 71.875 22.84375 68.75 
Q 25 65.625 22.265625 61.90625 
Q 19.53125 58.203125 17.96875 63.859375 
Q 16.40625 69.53125 12.109375 75.78125 
z
M 46.875 77.734375 
L 53.90625 73.046875 
Q 50.78125 72.265625 48.234375 69.140625 
Q 45.703125 66.015625 39.453125 59.765625 
L 38.28125 60.546875 
Q 45.703125 72.265625 46.875 77.734375 
z
M 29.296875 82.03125 
L 37.890625 78.125 
L 34.765625 75.390625 
L 34.765625 57.421875 
L 44.53125 57.421875 
L 48.828125 61.71875 
L 55.46875 55.078125 
L 34.765625 55.078125 
L 34.765625 51.5625 
Q 43.75 49.609375 46.28125 47.453125 
Q 48.828125 45.3125 47.84375 41.203125 
Q 46.875 37.109375 43.75 41.40625 
Q 40.625 45.703125 34.765625 49.609375 
L 34.765625 37.5 
L 30.078125 34.375 
L 35.546875 32.03125 
Q 33.59375 31.25 30.46875 26.171875 
L 42.578125 26.171875 
L 45.3125 29.6875 
L 51.171875 24.609375 
L 47.65625 22.65625 
Q 43.75 13.671875 40.625 10.15625 
Q 46.875 8.59375 49.015625 6.828125 
Q 51.171875 5.078125 51.171875 1.359375 
Q 51.171875 -2.34375 47.0625 0.96875 
Q 42.96875 4.296875 37.5 6.640625 
Q 23.828125 -4.296875 5.078125 -7.8125 
L 4.6875 -6.640625 
Q 22.65625 -0.78125 32.8125 8.59375 
Q 25 11.328125 17.578125 12.5 
Q 19.140625 14.84375 23.828125 23.828125 
L 18.75 23.828125 
Q 13.671875 23.828125 9.375 22.65625 
L 5.859375 26.171875 
L 24.609375 26.171875 
Q 26.171875 30.078125 27.734375 35.546875 
L 29.6875 34.765625 
L 29.6875 50.78125 
Q 19.140625 38.671875 5.46875 32.03125 
L 4.6875 33.203125 
Q 19.140625 43.359375 26.5625 55.078125 
L 19.53125 55.078125 
Q 14.453125 55.078125 10.15625 53.90625 
L 6.640625 57.421875 
L 29.6875 57.421875 
Q 29.6875 71.484375 29.296875 82.03125 
z
M 61.328125 55.078125 
Q 63.28125 32.421875 70.703125 17.1875 
Q 76.953125 30.46875 78.515625 55.078125 
z
M 63.28125 82.03125 
L 72.265625 76.953125 
Q 69.140625 75.78125 67.578125 72.265625 
Q 66.015625 68.75 61.71875 57.421875 
L 83.984375 57.421875 
L 88.671875 62.109375 
L 95.703125 55.078125 
L 84.375 55.078125 
Q 82.03125 26.171875 74.21875 12.109375 
Q 83.203125 1.171875 95.3125 -1.5625 
L 95.3125 -3.125 
Q 87.890625 -4.296875 87.5 -7.8125 
Q 77.34375 -0.78125 70.703125 8.203125 
Q 57.8125 -4.296875 39.84375 -10.15625 
L 39.0625 -8.984375 
Q 57.03125 -0.78125 67.578125 12.5 
Q 60.15625 30.859375 59.765625 52.734375 
Q 55.859375 42.578125 48.4375 33.59375 
L 47.265625 34.375 
Q 56.640625 50 63.28125 82.03125 
z
" id="SimSun-25968"/>
      <path d="M 48.828125 -10.15625 
Q 49.21875 -1.5625 49.21875 8 
Q 49.21875 17.578125 48.828125 25 
L 54.296875 21.875 
L 65.234375 21.875 
L 65.234375 37.5 
L 46.875 37.5 
Q 44.140625 9.765625 26.171875 -8.203125 
L 25 -7.03125 
Q 33.59375 4.296875 38.078125 18.546875 
Q 42.578125 32.8125 42.765625 51.75 
Q 42.96875 70.703125 42.578125 78.90625 
L 48.4375 75.390625 
L 80.46875 75.390625 
L 83.59375 78.515625 
L 89.0625 73.4375 
L 85.9375 71.484375 
Q 85.9375 59.765625 86.328125 54.296875 
L 80.859375 51.953125 
L 80.859375 56.640625 
L 48.046875 56.640625 
Q 48.046875 49.21875 47.265625 39.84375 
L 65.234375 39.84375 
Q 65.234375 47.265625 64.84375 54.296875 
L 73.4375 50.390625 
L 70.3125 48.046875 
L 70.3125 39.84375 
L 83.203125 39.84375 
L 87.5 44.140625 
L 94.140625 37.5 
L 70.3125 37.5 
L 70.3125 21.875 
L 80.46875 21.875 
L 83.59375 25.390625 
L 89.0625 20.3125 
L 85.9375 17.96875 
Q 85.9375 2.34375 86.328125 -6.25 
L 80.859375 -9.375 
L 80.859375 -1.171875 
L 54.296875 -1.171875 
L 54.296875 -7.8125 
z
M 48.046875 73.046875 
L 48.046875 58.984375 
L 80.859375 58.984375 
L 80.859375 73.046875 
z
M 54.296875 19.53125 
L 54.296875 1.171875 
L 80.859375 1.171875 
L 80.859375 19.53125 
z
M 26.171875 38.28125 
L 39.0625 45.703125 
L 39.84375 44.140625 
L 26.171875 33.984375 
L 26.171875 2.34375 
Q 25.78125 -4.6875 17.578125 -7.8125 
Q 18.359375 -3.90625 7.8125 0.390625 
L 7.8125 1.953125 
Q 16.40625 0.390625 18.546875 0.578125 
Q 20.703125 0.78125 20.703125 3.515625 
L 20.703125 31.25 
Q 9.765625 23.4375 9.375 21.09375 
L 3.515625 28.125 
Q 5.859375 28.515625 20.703125 35.9375 
L 20.703125 55.859375 
L 11.71875 55.859375 
L 7.03125 55.078125 
L 3.90625 58.203125 
L 20.703125 58.203125 
Q 20.703125 74.21875 20.3125 80.859375 
L 29.296875 76.171875 
L 26.171875 73.4375 
L 26.171875 58.203125 
L 30.46875 58.203125 
L 35.546875 62.5 
L 41.40625 55.859375 
L 26.171875 55.859375 
z
" id="SimSun-25454"/>
      <path d="M 27.734375 41.40625 
L 27.734375 32.421875 
L 50 32.421875 
L 50 41.40625 
z
M 22.265625 23.4375 
Q 22.65625 39.0625 22.65625 58.59375 
Q 15.234375 50 4.6875 42.96875 
L 3.90625 44.140625 
Q 12.5 51.5625 19.53125 61.90625 
Q 26.5625 72.265625 30.078125 82.421875 
L 37.890625 76.953125 
L 34.375 75.78125 
L 28.515625 66.40625 
L 77.734375 66.40625 
L 82.421875 71.09375 
L 89.0625 64.0625 
L 55.078125 64.0625 
L 55.078125 54.6875 
L 73.4375 54.6875 
L 77.734375 58.984375 
L 83.984375 52.34375 
L 55.078125 52.34375 
L 55.078125 43.75 
L 72.65625 43.75 
L 76.953125 48.046875 
L 83.203125 41.40625 
L 55.078125 41.40625 
L 55.078125 32.421875 
L 76.953125 32.421875 
L 81.640625 37.109375 
L 88.28125 30.078125 
L 27.734375 30.078125 
L 27.734375 25.390625 
z
M 46.484375 81.25 
Q 53.90625 78.515625 56.4375 75.78125 
Q 58.984375 73.046875 56.4375 69.140625 
Q 53.90625 65.234375 51.953125 70.5 
Q 50 75.78125 45.703125 80.078125 
z
M 27.734375 64.0625 
L 27.734375 54.6875 
L 50 54.6875 
L 50 64.0625 
z
M 27.734375 52.34375 
L 27.734375 43.75 
L 50 43.75 
L 50 52.34375 
z
M 48.046875 20.3125 
Q 48.046875 26.171875 47.65625 29.6875 
L 56.25 26.5625 
L 53.125 23.828125 
L 53.125 20.3125 
L 84.375 20.3125 
L 89.0625 25 
L 95.703125 17.96875 
L 57.421875 17.96875 
Q 64.84375 9.375 74.21875 4.6875 
Q 83.59375 0 96.09375 -1.171875 
L 96.09375 -2.34375 
Q 90.234375 -3.515625 89.0625 -7.421875 
Q 78.90625 -4.296875 70.703125 1.359375 
Q 62.5 7.03125 55.46875 17.96875 
L 53.125 17.96875 
Q 53.125 -1.5625 53.515625 -7.03125 
L 47.65625 -10.15625 
Q 48.046875 2.34375 48.046875 17.578125 
Q 39.84375 8.59375 29.484375 2.34375 
Q 19.140625 -3.90625 4.6875 -8.984375 
L 4.296875 -7.421875 
Q 18.359375 -1.171875 28.125 6.046875 
Q 37.890625 13.28125 41.40625 17.96875 
L 17.1875 17.96875 
Q 12.109375 17.96875 7.8125 16.796875 
L 4.296875 20.3125 
z
" id="SimSun-38598"/>
     </defs>
     <g transform="translate(124.2 72.086063)scale(0.18 -0.18)">
      <use xlink:href="#SimSun-67"/>
      <use x="50" xlink:href="#SimSun-77"/>
      <use x="100" xlink:href="#SimSun-65"/>
      <use x="150" xlink:href="#SimSun-26368"/>
      <use x="250" xlink:href="#SimSun-20339"/>
      <use x="350" xlink:href="#SimSun-36335"/>
      <use x="450" xlink:href="#SimSun-24452"/>
      <use x="550" xlink:href="#SimSun-25968"/>
      <use x="650" xlink:href="#SimSun-25454"/>
      <use x="750" xlink:href="#SimSun-38598"/>
     </g>
    </g>
   </g>
  </g>
 </g>
 <defs>
  <clipPath id="p7e27075eda">
   <rect height="266.112" width="357.12" x="57.6" y="41.472"/>
  </clipPath>
 </defs>
</svg>
